<svg xmlns="http://www.w3.org/2000/svg" viewBox="0 0 96 96" fill="none">
  <defs>
    <linearGradient id="bg" x1="10" x2="86" y1="10" y2="86" gradientUnits="userSpaceOnUse">
      <stop stop-color="#E8FFD9"/>
      <stop offset="1" stop-color="#98E78E"/>
    </linearGradient>
  </defs>
  <rect width="96" height="96" rx="22" fill="url(#bg)"/>
  <circle cx="34" cy="30" r="9" fill="#FFDDB8" stroke="#1E2D3D" stroke-width="4"/>
  <circle cx="62" cy="30" r="9" fill="#FFDDB8" stroke="#1E2D3D" stroke-width="4"/>
  <path fill="#5E98FF" d="M22 42c2-6 22-6 24 0v18H22V42Z"/>
  <path fill="#FF8B57" d="M50 42c2-6 22-6 24 0v18H50V42Z"/>
  <path stroke="#1E2D3D" stroke-linecap="round" stroke-width="4" d="M38 54h20"/>
  <path stroke="#1E2D3D" stroke-linecap="round" stroke-width="4" d="M30 66h12m24 0h-12"/>
  <path fill="#FFD85C" d="m48 76 4-7 8-2-6-6 1-8-7 4-7-4 1 8-6 6 8 2 4 7Z"/>
  <path fill="#FF7FA4" d="M18 20c0-3 2-5 5-5s5 2 5 5c0 4-5 7-5 7s-5-3-5-7Zm50-2c0-3 2-5 5-5s5 2 5 5c0 4-5 7-5 7s-5-3-5-7Z"/>
</svg>
