<svg xmlns="http://www.w3.org/2000/svg" viewBox="0 0 96 96" fill="none">
  <defs>
    <linearGradient id="bg" x1="10" x2="86" y1="10" y2="86" gradientUnits="userSpaceOnUse">
      <stop stop-color="#FFD7D7"/>
      <stop offset="1" stop-color="#FF9A9A"/>
    </linearGradient>
  </defs>
  <rect width="96" height="96" rx="22" fill="url(#bg)"/>
  <path stroke="#FFFFFF" stroke-opacity=".75" stroke-width="2" d="M14 24h68M14 48h68M14 72h68M24 14v68M48 14v68M72 14v68"/>
  <rect x="16" y="20" width="64" height="56" rx="10" fill="#FFF8F8" stroke="#2E1C1C" stroke-width="4"/>
  <path stroke="#2E1C1C" stroke-width="3" d="M48 20v56"/>
  <path fill="#DB3131" d="M22 28h22v18H22z"/>
  <path fill="#FFE7E7" d="M27 33c2-4 10-4 12 0l-2 8h-8l-2-8Z"/>
  <path stroke="#2E1C1C" stroke-linecap="round" stroke-width="2" d="M30 37h6m-3-3v6"/>
  <path fill="#DB3131" d="M52 28h22v18H52z"/>
  <path fill="#FFE7E7" d="M57 34c2-4 10-4 12 0-2 4-4 6-6 6s-4-2-6-6Z"/>
  <path stroke="#DB3131" stroke-linecap="round" stroke-width="2" d="M24 56h20m-20 8h18m30-8h-20m20 8H54"/>
</svg>
