<svg xmlns="http://www.w3.org/2000/svg" viewBox="0 0 96 96" fill="none">
  <defs>
    <linearGradient id="bg" x1="10" x2="86" y1="10" y2="86" gradientUnits="userSpaceOnUse">
      <stop stop-color="#FFECD4"/>
      <stop offset="1" stop-color="#FFB786"/>
    </linearGradient>
  </defs>
  <rect width="96" height="96" rx="22" fill="url(#bg)"/>
  <rect x="16" y="66" width="64" height="12" rx="6" fill="#6E3E1F"/>
  <rect x="20" y="61" width="56" height="7" rx="3.5" fill="#FFF5E7"/>
  <rect x="24" y="50" width="48" height="11" rx="4" fill="#F08B3C"/>
  <path fill="#FFD9C2" d="M28 48c3-12 37-12 40 0v5H28v-5Z"/>
  <circle cx="38" cy="39" r="4" fill="#FF6B80"/>
  <circle cx="47" cy="35" r="4" fill="#FF6B80"/>
  <circle cx="56" cy="39" r="4" fill="#FF6B80"/>
  <circle cx="43" cy="43" r="2" fill="#8EEFD0"/>
  <circle cx="52" cy="44" r="2" fill="#FFD45B"/>
  <path stroke="#FFFFFF" stroke-linecap="round" stroke-width="3" d="M33 29c2-3 5-3 7 0m7-2c2-3 5-3 7 0m7 2c2-3 5-3 7 0"/>
</svg>
