<svg xmlns="http://www.w3.org/2000/svg" viewBox="0 0 96 96" fill="none">
  <rect width="96" height="96" fill="url(#bg)" rx="22"/>
  <path fill="#F2F7FF" d="M17 19h62c-8 9-20 14-35 14-11 0-20-3-27-8v-6Z" opacity=".28"/>
  <rect width="40" height="34" x="28" y="22" fill="#DDE3EE" stroke="#30425A" stroke-width="5" rx="12"/>
  <circle cx="40" cy="39" r="6" fill="#67D7FF"/><circle cx="56" cy="39" r="6" fill="#67D7FF"/>
  <circle cx="40" cy="39" r="2" fill="#F7FEFF"/><circle cx="56" cy="39" r="2" fill="#F7FEFF"/>
  <rect width="30" height="8" x="33" y="58" fill="#55657D" rx="4"/>
  <path fill="#91A2BC" d="M35 58h26l-2 4H37l-2-4Z"/>
  <path stroke="#30425A" stroke-width="5" d="M48 16v8M22 35h6m42 0h6M34 70l-8 10m44-10 8 10"/>
  <defs><linearGradient id="bg" x1="10" x2="86" y1="10" y2="86"><stop stop-color="#C8E2FF"/><stop offset="1" stop-color="#748BFF"/></linearGradient></defs>
</svg>
