<svg xmlns="http://www.w3.org/2000/svg" viewBox="0 0 96 96" fill="none">
  <rect width="96" height="96" fill="url(#bg)" rx="22"/>
  <path fill="#6D4CFF" stroke="#2D226F" stroke-width="5" d="M24 26c0-6 4-10 10-10h28c6 0 10 4 10 10v44c0 6-4 10-10 10H34c-6 0-10-4-10-10V26Z"/>
  <path fill="#B7A7FF" d="M34 24h28v48H34z"/>
  <path fill="#F7E674" d="m48 30 4 9 9 1-7 6 2 9-8-5-8 5 2-9-7-6 9-1 4-9Z"/>
  <path fill="#E4DDFF" d="M38 26h20v40H38z" opacity=".35"/>
  <path stroke="#5A3CCD" stroke-width="3" d="M40 24v48" opacity=".4"/>
  <defs><linearGradient id="bg" x1="10" x2="86" y1="10" y2="86"><stop stop-color="#D9CBFF"/><stop offset="1" stop-color="#7B4CFF"/></linearGradient></defs>
</svg>
