<svg xmlns="http://www.w3.org/2000/svg" viewBox="0 0 96 96" fill="none">
  <defs>
    <linearGradient id="g1" x1="18" x2="78" y1="16" y2="80" gradientUnits="userSpaceOnUse">
      <stop stop-color="#FFF9D8"/>
      <stop offset="1" stop-color="#FFD26A"/>
    </linearGradient>
    <linearGradient id="g2" x1="28" x2="68" y1="28" y2="70" gradientUnits="userSpaceOnUse">
      <stop stop-color="#FFFFFF"/>
      <stop offset="1" stop-color="#F7E6C2"/>
    </linearGradient>
  </defs>
  <path fill="#F8A51E" d="M30 9h12v12H30zm24 0h12v12H54z"/>
  <path fill="#D97F17" d="M28 8h16l2 6H26l2-6Zm24 0h16l2 6H50l2-6Z" opacity=".7"/>
  <circle cx="48" cy="50" r="31" fill="url(#g1)" stroke="#46301A" stroke-width="6"/>
  <path fill="#FFF3B3" d="M48 19c15 0 27 10 30 24-7-7-17-12-30-12S25 36 18 43c3-14 15-24 30-24Z" opacity=".55"/>
  <circle cx="48" cy="50" r="21" fill="url(#g2)" stroke="#A67A2C" stroke-width="3"/>
  <circle cx="48" cy="50" r="4" fill="#46301A"/>
  <path stroke="#46301A" stroke-linecap="round" stroke-width="5" d="M48 34v17l12 7"/>
  <path stroke="#46301A" stroke-linecap="round" stroke-width="3" d="M48 25v4m0 42v4M23 50h4m42 0h4M31 33l3 3m28 28 3 3m0-34-3 3M34 64l-3 3"/>
  <path fill="#FFFDF6" d="M41 39c2-4 11-4 13 0-4 1-9 1-13 0Z" opacity=".65"/>
</svg>
